<svg width="61" height="60" xmlns="http://www.w3.org/2000/svg" fill="white" stroke-linejoin="round" stroke-linecap="round" 
stroke="#fff" style="background-color: rgb(21, 67, 96)">

 <g>
  <title>Layer 1</title>
  <path id="svg_1" d="m1.70721,42.207l1.287,-1.287l14.592,14.58l-1.293,1.293a0.999,0.999 0 0 0 0,1.414c0.1951,0.195 0.451,0.293 0.707,0.293a0.997,0.997 0 0 0 0.707,-0.293l1.999,-1.999c0.001,-0.002 0.001,-0.002 0.0021,-0.002l7.9989,-7.999c0.188,-0.187 0.293,-0.441 0.293,-0.707l0,-3l3,0a1,1 0 0 0 1,-1l0,-3l3,0a1,1 0 0 0 1,-1l0,-3l3,0a1,1 0 0 0 1,-1l0,-3l3,0a1,1 0 0 0 1,-1l0,-3l3,0c0.552,0 1,-0.448 1,-1l0,-3l3,0c0.552,0 1,-0.448 1,-1l0,-3l3,0c0.552,0 1,-0.448 1,-1l0,-3l3,0a1.002,1.002 0 0 0 0.9241,-0.617c0.1549,-0.374 0.0689,-0.804 -0.217,-1.09l-14.0001,-14c-0.346,-0.347 -0.894,-0.391 -1.2919,-0.104c-0.0501,0.036 -0.0961,0.075 -0.137,0.118l-25.337,25.39c-1.4851,-0.924 -3.3201,-0.734 -4.6481,0.595l-14,14a1.0002,1.0002 0 1 0 1.414,1.415l0,0zm53.293,-27.707c-0.552,0 -1,0.448 -1,1l0,3l-3,0c-0.552,0 -1,0.448 -1,1l0,3l-3,0c-0.552,0 -1,0.448 -1,1l0,3l-3,0c-0.552,0 -1,0.448 -1,1l0,3l-3,0a1,1 0 0 0 -1,1l0,3l-3,0a1,1 0 0 0 -1,1l0,3l-3,0a1,1 0 0 0 -1,1l0,3l-2,0l0,-7c0,-0.266 -0.105,-0.52 -0.293,-0.707l-4.293,-4.293l24.586,-24.586l8.586,8.586l-1.586,0l0,0zm-10.021,-11.606l1.606,1.606l-24.585,24.586l-1.5589,-1.559l21.2089,-21.253l3.329,-3.38l0,0zm-29.272,25.313c0.7861,-0.785 1.8,-0.784 2.586,0l0.0271,0.027c0.0019,0.001 0.0019,0.001 0.0019,0.002l7.678,7.678l0,11.172l-7,7l-14.592,-14.58l11.299,-11.299l0,0zm-7.3489,12.007l9.758,9.916a1,1 0 0 0 0.709,0.299l0.004,0c0.265,0 0.52,-0.105 0.707,-0.293l2.829,-2.828c0.188,-0.188 0.293,-0.441 0.293,-0.707l0,-5.656c0,-0.262 -0.102,-0.512 -0.285,-0.699l-6.93,-7.089c-0.187,-0.19 -0.442,-0.299 -0.709,-0.301c-0.255,-0.021 -0.524,0.104 -0.713,0.293l-5.657,5.657a1,1 0 0 0 -0.006,1.408l0,0zm6.362,-4.937l5.938,6.074l0,4.835l-1.823,1.822l-8.355,-8.49l4.24,-4.241l0,0z"/>
  <g id="svg_2" stroke-width="3" fill="none">
   <path id="svg_3" d="m47.50041,36l12.5,12.5l-10,10l-12.5,-12.5"/>
   <path id="svg_4" d="m50.00041,48.5l-5,5m-2.5,-7.5l-2.5,2.5m5,-15l2.5,2.5m-12.5,7.5l2.5,2.5m-10,-30l-2.5,-2.5l-10,-10l-2.5,-2.5l-10,10l12.5,12.5"/>
   <path id="svg_5" d="m10.00041,13.5l-2.5,2.5m10,0l-5,5"/>
  </g>
 </g>
</svg>