<svg xmlns="http://www.w3.org/2000/svg" xmlns:xlink="http://www.w3.org/1999/xlink" viewBox="0 0 220 257" fill="#fff" fill-rule="evenodd" stroke="#000" stroke-linecap="round" stroke-linejoin="round"><use xlink:href="#A" x=".5" y=".5"/><symbol id="A" overflow="visible"><g stroke="none" fill-rule="nonzero"><path d="M20.678 183.848C9.272 183.855.007 174.577.005 163.174L0 99.876c-.004-11.392 9.26-20.674 20.65-20.67a20.53 20.53 0 0 1 14.632 6.047 20.54 20.54 0 0 1 6.063 14.617l-.005 63.303a20.43 20.43 0 0 1-6.036 14.604 20.51 20.51 0 0 1-14.626 6.071"/><path d="M20.662 84.761c-8.347-.004-15.112 6.781-15.114 15.114l.011 63.296c.002 8.368 6.779 15.122 15.116 15.13 8.354-.01 15.12-6.766 15.11-15.129l.001-63.304c-.01-8.346-6.779-15.107-15.126-15.106m162.14 3.134l-5.557-.002-141.713.02-.002-5.557c-.013-22.815 12.418-44.036 32.776-56.574l-7.915-14.448c-.969-1.694-1.211-3.837-.648-5.799.572-1.961 1.924-3.644 3.736-4.609C64.525.332 65.804-.004 67.1.004c2.803.001 5.373 1.529 6.725 3.989l8.284 15.09c8.574-3.146 17.617-4.749 26.974-4.746 9.485-.004 18.58 1.595 27.191 4.76l8.271-15.117c1.332-2.46 3.919-3.989 6.718-3.979 1.26-.001 2.517.306 3.626.904 1.861 1.021 3.158 2.648 3.723 4.623a7.59 7.59 0 0 1-.657 5.833l-7.911 14.441c20.328 12.563 32.743 33.768 32.74 56.544l.007 5.559zm-42.616-30.215a5.7 5.7 0 0 1-5.709-5.707c0-3.129 2.558-5.709 5.712-5.72 3.145.026 5.685 2.578 5.696 5.723a5.7 5.7 0 0 1-5.698 5.704m-61.995.011a5.71 5.71 0 0 1-5.69-5.704c.001-3.136 2.554-5.714 5.695-5.714 3.153.005 5.709 2.56 5.714 5.713.001 3.146-2.557 5.704-5.719 5.706m64.362-29.77l10.55-19.265a2.1 2.1 0 0 0-.823-2.854c-1.032-.556-2.305-.176-2.849.836l-10.66 19.458c-8.965-3.979-19.003-6.22-29.614-6.209-10.59-.009-20.608 2.22-29.548 6.182L68.941 6.654c-.55-1.024-1.836-1.398-2.839-.834a2.07 2.07 0 0 0-.832 2.839l10.555 19.249C55.087 38.605 41.078 58.971 41.088 82.353l136.146-.013c.004-23.378-13.981-43.701-34.688-54.422"/><path d="M83.894 255.993c-11.394-.001-20.675-9.27-20.67-20.671l-.005-27.936-5.429.005c-5.756.02-11.28-2.266-15.339-6.348a21.49 21.49 0 0 1-6.347-15.346l-.021-103.636 146.25-.024.015 103.638c.002 11.961-9.729 21.695-21.688 21.692l-5.466.007.008 27.926c-.001 11.394-9.271 20.673-20.661 20.672a20.42 20.42 0 0 1-14.616-6.047 20.48 20.48 0 0 1-6.069-14.612v-27.94h-9.289v27.934c-.002 11.398-9.272 20.674-20.671 20.678"/><path d="M41.666 185.698c-.008 8.932 7.201 16.142 16.125 16.139l10.982.001.013 33.491c-.002 8.336 6.772 15.116 15.104 15.117a15.12 15.12 0 0 0 15.11-15.128l.001-33.483 20.406-.003-.001 33.489c.007 8.338 6.79 15.124 15.12 15.109 8.351.005 15.122-6.779 15.12-15.124l-.009-33.48 11.022-.003c8.893.003 16.127-7.224 16.127-16.137l-.017-98.094-135.129.024.025 98.082zm156.07-1.875c-11.4.001-20.673-9.262-20.67-20.666l-.015-63.298c.003-11.402 9.26-20.676 20.656-20.676 11.409-.001 20.686 9.27 20.684 20.67l.007 63.286c.003 11.394-9.262 20.678-20.661 20.676"/><path d="M197.718 84.734c-8.346-.007-15.11 6.771-15.11 15.119l.007 63.295a15.11 15.11 0 0 0 15.119 15.114c8.346-.001 15.104-6.757 15.11-15.119l-.017-63.287c-.001-8.35-6.761-15.117-15.109-15.115"/><path d="M212.833 99.852c-.001-8.348-6.767-15.113-15.114-15.11-8.346-.007-15.112 6.771-15.11 15.119l.011 63.296c-.001 8.356 6.762 15.11 15.114 15.112a15.11 15.11 0 0 0 15.11-15.119l-.011-63.298zM41.643 87.615l.023 98.091a16.11 16.11 0 0 0 16.127 16.126l10.982.005.013 33.491a15.13 15.13 0 0 0 15.104 15.117c8.352 0 15.118-6.785 15.12-15.127l-.008-33.485 20.406-.004.009 33.489c-.002 8.334 6.781 15.124 15.109 15.11 8.352.005 15.122-6.779 15.12-15.124l-.009-33.48 11.02-.009c8.896.003 16.133-7.209 16.134-16.131l-.017-98.092-135.133.023zm98.541-29.935c-3.148.003-5.717-2.549-5.709-5.707.011-3.128 2.558-5.709 5.712-5.72 3.145.026 5.685 2.578 5.696 5.723.002 1.512-.598 2.963-1.667 4.033s-2.519 1.671-4.032 1.671m-61.995.011a5.71 5.71 0 0 1-5.69-5.704 5.72 5.72 0 0 1 5.695-5.714c3.153.005 5.708 2.56 5.714 5.713.001 3.146-2.558 5.704-5.72 5.706m64.362-29.77l10.55-19.265a2.1 2.1 0 0 0-.828-2.857c-1.028-.545-2.3-.175-2.844.839l-10.656 19.467c-8.974-3.989-19.001-6.229-29.618-6.217-10.59-.009-20.619 2.22-29.548 6.182L68.941 6.654c-.556-1.024-1.831-1.395-2.839-.838a2.08 2.08 0 0 0-.833 2.841L75.824 27.91C55.086 38.612 41.076 58.97 41.086 82.352l136.146-.013c.004-23.378-13.982-43.701-34.688-54.422M20.655 84.755c-8.347-.004-15.112 6.781-15.114 15.114l.011 63.295a15.11 15.11 0 0 0 15.117 15.119c4.01.003 7.856-1.589 10.691-4.425s4.424-6.684 4.419-10.693l.001-63.304c-.003-8.338-6.778-15.11-15.126-15.106" fill="#a4c439"/></g></symbol></svg>