<?xml version="1.0" encoding="utf-8"?>
<!-- Generator: Adobe Illustrator 24.1.1, SVG Export Plug-In . SVG Version: 6.00 Build 0)  -->
<svg version="1.1" id="Layer_1" xmlns="http://www.w3.org/2000/svg" xmlns:xlink="http://www.w3.org/1999/xlink" x="0px" y="0px"
	 viewBox="0 0 512 512" style="enable-background:new 0 0 512 512;" xml:space="preserve">
<style type="text/css">
	.st0{fill:#444444;}
</style>
<g>
	<path class="st0" d="M498.8,21.7c-71.7,39.3-154.9,60-240.5,60.1c-85.6,0-168.8-20.8-240.5-60.1c-1.7-0.9-3.7-1.4-5.6-1.4
		c-3.8,0-7.5,1.8-9.8,4.9C-1,29.6-1.1,37.2,4.6,41.7c35.9,26.8,75.5,47.7,117.7,62c43.7,14.8,89.5,22.4,135.9,22.4h0
		c46.5,0,92.2-7.5,135.9-22.4c42.2-14.3,81.8-35.2,117.8-62L498.8,21.7z M422.5,135.7c-20.8,8-41.9,14-61.2,18.5
		c-3.9,0.9-7.1,3.8-8.4,7.3c-14,38.5-49.9,75.1-87.5,113.5c-1.5,1.4-3.6,3.3-7.1,3.3c-3.4,0-5.5-1.8-7.1-3.3
		c-37.6-38.4-73.5-74.9-87.5-113.3c-1.3-3.5-4.5-6.4-8.4-7.4c-19.3-4.5-40.4-10.7-61.2-18.7l-3.4-0.6c-2.1,0-4.1,0.7-5.8,2
		c-2.7,2-4.1,5.3-3.7,8.5c3.2,32,15.8,63.3,38.6,96c21.4,30.8,49.4,59.3,76.5,86.9c49.8,50.8,96.9,98.8,101,154.5
		c0.4,5,4.6,8.9,9.6,8.9h58.5c2.6,0,5.2-1.1,7-3c1.8-1.9,2.8-4.5,2.6-7.1c-1.8-37.2-15.8-74.5-42.8-113.9
		c-5.6-8.3-11.7-16.3-18-24.2c-2.6-3.2-1.5-7.2,0.5-9.2c1.9-2,3.9-4,5.8-6c27.1-27.6,55-56.1,76.5-86.9
		c22.8-32.8,35.5-63.9,38.6-95.9L422.5,135.7z M195.5,371.7c-1.4-1.4-3.4-2.9-6.8-2.9c-4.4,0-7,3-7.9,4.5
		c-24.6,37.5-37.3,72.8-39.1,108.4c-0.1,2.6,0.8,5.2,2.7,7.1c1.8,1.9,4.4,3,7,3h58.4c5,0,9.3-3.9,9.6-8.9
		c1.3-17.1,6.6-34.3,16.3-52.3c3.3-6.2,0.7-12.1-1.2-14.6C224.8,403.4,213,390,195.5,371.7L195.5,371.7z M258.4,165.7
		c18.4,0,29-1.1,32.7-1.1c4.5,0,8.9,3.7,8.9,8.9l-0.7,3.6c-2.4,6.5-13.5,29.9-34.2,50c-2.3,2.2-4.9,2.7-6.8,2.7h0
		c-1.8,0-4.4-0.4-6.7-2.7c-20.6-20.1-31.7-43.5-34.2-50l-0.7-3.6c0-5.2,4.3-8.9,8.9-8.9c3.7,0,14.4,1.1,32.7,1.1H258.4z"/>
</g>
</svg>
