<svg version="1.2" xmlns="http://www.w3.org/2000/svg" viewBox="531.95 -0.03 744.78 815.17">
	<title>microsoft-sql-server-seeklogo</title>
	<defs>
		<linearGradient id="g1" x1="654.8" y1="734.5" x2="713.8" y2="699.6" gradientUnits="userSpaceOnUse">
			<stop offset="0" stop-color="#909ca9"/>
			<stop offset="1" stop-color="#ededee"/>
		</linearGradient>
		<linearGradient id="g2" x1="656.1" y1="76.9" x2="703.6" y2="76.9" gradientUnits="userSpaceOnUse">
			<stop offset="0" stop-color="#939fab"/>
			<stop offset="1" stop-color="#dcdee1"/>
		</linearGradient>
		<radialGradient id="g3" cx="895.8" cy="294.8" r="61.2" gradientUnits="userSpaceOnUse">
			<stop offset="0" stop-color="#ee352c"/>
			<stop offset="1" stop-color="#a91d22"/>
		</radialGradient>
	</defs>
	<style>
		.s0 { fill: url(#g1) } 
		.s1 { fill: url(#g2) } 
		.s2 { fill: url(#g3) } 
	</style>
	<g id="Layer">
		<path id="Layer" fill-rule="evenodd" class="s0" d="m1002.2 380.5l4 9.7c-20.1 5.8-21.5 6.3-22 6.6-0.3 0.2-0.2 2.5 0.3 5.1 3.1 17.6 5.1 35.7 6.2 57.9 0.7 13.5 0.4 53.6-0.5 65.6-3.3 42.8-8.4 79-14.8 106.1-10.7 44.8-30.5 97.3-57.9 153.1-8 16.5-14.9 29.7-15.9 30.3-0.5 0.3-12.6 0.3-21.6 0-44.5-1.7-125.5-13.2-167.3-23.8-25.2-6.3-58.6-17.6-78.5-26.3-39-17.2-72.4-42.3-89.2-67-13.1-19.4-16.4-40.4-9.6-61.1 3.8-11.5 12.7-26.4 23.9-40.5 7.6-9.3 22.4-24.2 32.4-32.1 9-7.1 20.7-17 33.3-27.8 11.5-9.9 22.1-19.7 32.2-29.3l39.7-10.5 142-62.7 163.3-53.3q0 0 0 0zm-96.5 40.8c-10.1 3.4-10.3 3.5-9 4.4 3.7 3 27.1 18.5 39.5 26.3 14.2 8.9 34 20.6 35 20.6 0.3 0 0.4-3.3 0.1-8.4-1-23.9-4.9-61.8-6.4-61.8-1.3 0-42.1 13.1-59.2 18.9zm-23.9 8.4c-1.2 0.3-1.2 0.3-1.3 12.7-0.2 24.9-4.9 56-13.2 86.7-1 3.7-1.7 6.8-1.5 6.8 0.2 0 5.2-2.1 11.3-4.8 34.3-15.2 62.3-30.2 84.7-45.5 10.5-7.2 10-6.5 5.5-8.4-14.8-6.5-49.4-25.7-74.8-41.6-6.8-4.2-9.6-5.8-10.7-5.8-0.2 0-0.3 0 0-0.1zm-84.7 32.7c-0.4 0.3 4.1 11.2 6.9 16.7 5.6 10.9 13.1 22 22.7 33.1 5.6 6.4 22.5 23 23 22.3 0.2-0.2 1.5-4 2.8-8.6 5.7-18.9 9.1-35.7 11.4-53.7 0.9-7.5 1.4-35.1 0.7-35.9-0.5-0.5-65.5 24.7-67.5 26.1zm-15.3 6.1c-1.6 0.9-2.2 1.5-2.7 3.2-0.4 1.3-2.5 6.7-4.6 12.1-12.3 31.4-34.3 75.7-48.7 98.2-3.2 5.1-3.6 5.7-2.5 5.3q2.6-0.8 5.2-1.7 2.6-0.8 5.2-1.7 2.6-0.8 5.3-1.7 2.6-0.8 5.2-1.6c29.1-9.4 54.5-18.3 77.8-27.2 20.1-7.6 19.9-7.5 19.2-8.3-0.4-0.3-3.1-2.7-6.1-5.1-9.1-7.8-20.1-19.7-28.5-30.8-7.6-10.1-16.5-25.9-20.5-36.6-0.7-2.2-1.6-4.2-1.8-4.5-0.2-0.1-0.3-0.1-0.4-0.1-0.4 0-1.2 0.3-2.1 0.5zm-89.9 41.2c-3.7 1.9-3.6 1.8-5.2 9.4-2.1 10.4-2.5 27.2-0.6 36.8 1.8 9.7 5.3 20.3 9.5 28.6 1.9 3.8 2.2 4.1 2.8 3.2 0.4-0.5 3.2-4.9 6.2-9.7 17.5-27.9 30.6-50.9 42.5-74.2 6.2-12.1 12.5-25.3 12.1-25.5-0.5-0.5-51.6 23.4-67.3 31.4zm278.2-21.3c-2.5 2.2-13.8 10.4-21.3 15.4-20.2 13.5-43.4 27-67.5 39.6-6.1 3.2-11.3 5.9-11.4 6.1-0.5 0.5 16.9 11.2 28.9 17.7 18.1 10 38.2 18.5 56.7 24.3 4.2 1.3 7.8 2.3 7.8 2.3 0.1-0.2 0.8-4.1 1.5-8.9 4.3-27.5 7.3-65.3 7.3-92.8v-5.2zm-304.3 35.2c-1.5 0.5-20.9 11.2-33.4 18.4-17.6 10-27.8 17.7-40.6 31-19.3 20-33.1 43.7-35.9 61.9-0.4 2.1-0.3 2.2 0.6 1.9 0.5-0.1 7.1-1.9 14.8-4 25.6-7.1 107.3-31 108.2-31.7 0.1-0.2-1.9-4.4-4.3-9.4-8.9-18.3-11.9-31.6-10.9-49.6 0.3-4.1 0.9-10 1.4-13.2 0.7-4.5 0.8-5.5 0.3-5.5-0.1 0-0.2 0-0.2 0.2zm191 38.8c-7.9 24.5-23.4 59.6-38.9 88.5-2.8 5.3-5 9.6-5 9.8 0 0.1 1.3-0.3 2.8-0.9 1.5-0.6 9.4-3.6 17.4-6.5 55.2-20.7 109.1-43.1 125.5-52.2l3.9-2.3-2.8-0.6c-31.3-7.3-68.1-21.4-94.5-36.7-3.6-2.1-6.5-3.7-6.7-3.6-0.1 0.1-0.7 2.2-1.7 4.5zm-26.8 5.5c-33.9 14.5-68.1 26.4-108.3 37.4l-11.2 3 2.2 2.8c15.2 19.1 38.4 38.8 64.5 54.9 4.5 2.7 8.2 4.9 8.3 4.9 0.1 0 3.9-6.5 8.5-14.7 18-31.8 32.1-60.2 42.8-86.2 1.2-3 2.2-5.6 2.1-5.7-0.1 0-4.1 1.6-8.9 3.6zm126.3 41.2c-20 11.9-78.3 39.8-134.4 64.4-9.4 4.1-16.8 7.5-16.6 7.8 0.8 0.6 13.1 6.1 21.8 9.6 30.8 12.3 63.6 21.6 100.3 28.2 0.7 0.3 1.5 0.4 1.6 0.4 0.1 0 2.7-7.8 5.7-17.1 6.7-21.4 10.4-33.5 14.8-48.9 5.1-18.4 11.4-43.8 11.3-46.6 0.1 0.1 0 0 0 0-0.4 0-2.2 0.7-4.5 2.2zm-290 10.5c-7.2 1.7-27 6.4-44.2 10.3-30.8 7.2-63.8 15-65.6 15.5-1.3 0.3-1.3 3.3 0.1 9.2 2.8 12.7 10 26.7 20.6 39.9 5.1 6.4 16.4 18 22.9 23.4l5.6 4.7 5.2-8c2.8-4.5 7.9-11.9 11.2-16.6 3.3-4.6 12.2-17.2 19.9-28 21.9-30.7 37.6-53.3 37.4-53.5-0.2 0-6 1.3-13.1 3.1zm7 29.2c-31.7 38.3-46.3 56.6-57.9 73.4l-3.5 5.2 2.2 1.6c1.2 0.9 2.3 1.6 2.5 1.6 0.1 0 16.2-5.5 35.9-12.4 34.9-12.1 110.3-38.9 111.1-39.5 0.3-0.1-2.7-2.1-6.6-4.3-22-12.9-40.1-27.6-57.9-47.4l-3.9-4.5zm112.7 55.6c-14.6 22.4-32.3 46.1-50.1 67.3-3.5 4.2-6.5 8-6.5 8.3 0 0.5 4.1 1.6 5.3 1.4 0.5-0.2 8.9-2.5 18.6-5.4 52.8-15.1 117.6-34.3 138.9-40.9 13.3-4.2 31.4-10.3 32.3-10.8 0.5-0.3-1-0.6-3.7-0.8-17.9-1.5-48.3-6.7-69.2-12-17.1-4.3-29.8-8.1-45.8-14.2-6.7-2.4-12.1-4.4-12.2-4.3 0 0.1-3.5 5.2-7.6 11.4zm-20.9-8.9c-19.7 6.1-49.6 14.7-103.7 29.3-20.3 5.6-37.3 10.2-37.5 10.3-1 0.2 11.4 8.1 21.2 13.4 7.9 4.2 18.5 9.2 28.8 13.2 8.2 3.4 39.5 14.3 43.9 15.6l1.9 0.5 3.5-6.3c2.1-3.5 5.8-9.6 8.3-13.6 2.6-4.1 9.9-15.7 16.4-25.9 15.3-24.2 24.1-38.3 23.9-38.4-0.1-0.1-3.2 0.8-6.7 1.9zm152.5 37.4c-24.3 11.3-48.4 20.6-72.7 28-19.3 5.9-38.3 10.7-77.7 19.6l-18.4 4.2 2.9 0.6c13 3 64.6 12 95.3 16.7 17.6 2.6 46.6 6.6 48.7 6.7 0.9 0.2 1.5-0.8 3.1-4.8 7.3-17.5 27.3-73 26.8-74.2h-0.1c-0.9 0.1-4.1 1.4-7.9 3.2z"/>
		<path id="Layer" fill-rule="evenodd" class="s1" d="m833.9 0c1.3 0.1 1.6 0.6 3.7 9 3.8 13.8 10.7 33.1 18 49.7 9.4 21.5 25.4 53.3 40 79l2.8 5.1 14.1 2.2c0.3 0 0.6 0.1 1 0.1l-1.1 9.3-107.2-18.4-93.6-16.8-39.4-12.6-16.5-15.7c0-1.4 0.2-2.9 0.7-4.2 1.4-3.3 9.9-11.8 16.7-16.6 18.3-12.8 47.9-27.6 86-43.2 28.3-11.5 72.1-27.3 74.8-26.9q0 0 0 0zm-68.8 34.1c-13.2 6.1-43.1 21.8-42.6 22.3 0 0.1 5.5 1 12 1.8 40.9 5.7 97.3 15.5 109.9 18.9 5.3 1.6 5.3 2.4 0.7-11.2-6-18-9.9-34.7-12-52-0.5-4-1-7.5-1.1-7.6h-0.1c-3.5 0.6-49.8 20-66.8 27.8zm-45.7 33.3c6.5 6.1 23.5 22.4 45.3 43.5l12.3 12.1 4.9 0.8c2.7 0.3 5.3 0.8 5.8 0.8 0.5 0 4.1-1.9 8-4.4 13.4-8.3 32.6-19 50.1-27.8 4.5-2.1 7.9-3.9 7.8-4-0.1 0-3.6-0.4-7.6-0.8-36.3-2.9-102.1-15.5-128.2-24.4l-4.8-1.6zm-13-0.9c-17.8 12.6-28.3 24.9-28.4 33.2v1.7l6.8 2.3c8.3 2.5 13.8 4 27.3 7.1 13.1 3 37.7 7.8 38.2 7.4 0.1-0.1-1.6-2.2-3.7-4.8-2.1-2.6-11.7-14.3-21.2-26.3l-17.4-21.7zm148.9 28.8c-0.5 0.3-3.1 2.5-5.9 4.9-11.6 9.7-24.7 18.9-37.6 26-1.6 0.9-2.9 1.8-2.9 1.9 0 0.2 13.5 2.4 55.3 9.2 17.4 2.9 15.7 2.7 14.7 1.1-3.2-4.8-16.3-29.7-20.5-39-1.5-3.3-2.1-4.4-2.6-4.4-0.1-0.1-0.3 0-0.5 0.3z"/>
		<path id="Layer" fill-rule="evenodd" class="s2" d="m681.7 102.4c11.1 3.8 25.3 7.2 32.7 8.8 14.3 3.1 35.9 6.8 50.4 9.2 40.2 6.9 76.7 13 133.2 21.8 26.7 4 59.5 9.7 74.4 12.7 79.3 15.6 141.8 36.7 190.2 63.8 35.2 19.7 63.9 43.5 87.6 72.9 8.1 10.1 14.9 19.6 24.8 34.9l1.7 2.7-11.2 1.7c-108.1 16.6-298 67.4-413.5 110.8-80.2 30.2-145.6 59.4-203.7 91.2-25.2 13.9-35.9 20.1-43.8 26.1l-12.2 4c83.5-68.6 137.7-130.4 163.3-186.4 14.5-31.2 20.3-58.1 19.5-88.7-1.2-47.7-14.4-82.2-44.7-117.2-6.7-7.7-61.6-61.2-61.6-61.2-5.3-5-10-9.8-11.6-13.7-2.6-6.5 0.1-10.8 0.1-10.8 2.7 10.5 15.6 14 24.4 17.4zm13.5 18.3c26.4 20.7 49.2 46.5 63.7 71.9 1.6 2.9 2.9 5 3 4.8 0.2 0-1.1-4.9-2.7-10.7-4.2-15.3-16.6-55.2-17.5-56-0.1 0-6.3-1.8-13.7-3.6q-2-0.5-4.1-1.1-2-0.5-4-1-2.1-0.6-4.1-1.1-2-0.6-4.1-1.1c-7.1-2-13.2-3.8-17.9-5.4-2.6-0.9-4.5-1.7-4.7-1.5 0 0.1 2.6 2.3 6.1 4.8zm54.6 12c0.2 0.6 1.2 3 2.4 5.5 8.4 17.9 17.6 43.3 22.1 60.5 0.6 2.6 1.3 4.7 1.3 4.7 0 0 3.1-3 6.7-6.6 8.9-8.9 21.2-18.7 34.9-27.9 5.4-3.7 21.9-13.4 25.9-15.5 1.9-1 3.4-1.9 3.4-2.1 0-0.3-3.2-1-7.3-1.6-24.1-4.1-61.7-11.2-82.7-15.9-3.3-0.8-6-1.1-6.7-1.1q0 0 0 0zm-0.1-0.2c0 0.2 0 0.2 0.1 0.2q-0.1-0.1-0.1-0.2zm59.6 57.3c-6.5 5.8-21.8 21.1-21.8 21.8 0 0.3 8.5 2.9 19 5.7 18.4 5.2 39.8 11.5 53 15.7l6.5 2.1 0.3-1.3c0.3-0.6 0.5-5.4 0.8-10.6 0.7-18.6-1.4-38.6-6-56.5-2.4-9.2-3.7-13.4-4.4-13.7-1.1-0.4-34.9 25.8-47.4 36.8zm57.4-31.6c8.6 20 13.3 43.7 13.3 67.1 0 4.3 0.1 7.9 0.3 7.9 0.1 0 5.4-3.4 11.7-7.6 24.1-16.1 48.2-29.3 80.8-44 8.3-3.7 10.9-5.1 10.1-5.4-1.4-0.6-26.4-5.8-43.5-9.1-23.1-4.5-73.8-13.2-74.2-12.9-0.1 0.2 0.6 2 1.5 4zm85.4 46.6c-21 12.6-60.7 38.9-59.9 39.6 0.2 0.3 4.5 2 9.4 4.1 17.8 7.4 34.1 15.3 48.4 23.7 3.8 2.2 7.1 4.1 7.4 4 0.2-0.2 2.6-3.9 5.2-8.4 14.7-25.7 26.6-53 31.1-71.4 1.4-5.9 3.1-15.9 2.7-16.2-0.5-0.5-27.7 14.5-44.3 24.6zm52.8-19c-2.1 25-10.6 54.2-23.8 82.2-1.6 3.5-2.9 6.3-2.6 6.3 0.2 0 3.4-1.2 7-2.7 43.8-17.8 89.2-31.8 142.3-44.1l6.3-1.4-9-4.1c-21.7-9.9-55.1-22.1-84.1-30.7-11.7-3.5-34.1-9.7-35.2-9.7-0.4 0-0.8 1.9-0.9 4.2zm-222.1 53.7c3.9 27 4.6 53.7 1.7 74.4-0.1 1 0 1.7 0.3 1.7 0.2 0 4.9-4.3 10.5-9.6 18.6-18 34.1-32.2 50.3-45.6 3.9-3.5 7.3-6.3 7.3-6.5 0-0.7-29.9-10.7-43.9-14.6-9.3-2.6-26.5-6.7-26.8-6.3-0.1 0.1 0.2 3.1 0.6 6.5zm328.7 2.8c-28.5 8.8-66.5 22.4-94.4 33.7-15.9 6.4-36.9 15.5-36.9 15.8 0 0.1 1.1 1.1 2.5 2.1 1.3 1 5.4 4.3 9.1 7.4 19.6 16.3 36.2 34.5 50 55.2 1.7 2.7 3.3 4.9 3.4 4.9 0.2 0 4.2-5.2 9.2-11.3 4.8-6.2 19.3-24.6 32.3-40.9 24.6-30.8 35.4-44.9 42.8-55.5 5.2-7.3 13.3-20.1 13.1-20.4-0.2-0.2-16.2 4.4-31.1 9zm40.6-6.5c-0.2 0.4-2.7 5.6-5.6 11.6-20.2 40.7-37.3 63.6-74.8 99.7-6.1 5.8-10.9 10.6-10.7 10.6 0.3 0 4.1-0.9 8.4-1.8 63.9-15.5 130.5-26.4 182.4-30.4 6.7-0.5 12.3-1 12.3-1 0.3-0.1-15.9-16.9-22.4-23.3-23.2-22.7-52.6-44.8-82.6-61.9-3.5-2.1-6.5-3.6-7-3.5zm-276.1 31.2c-5.1 23.6-14 47.8-25.1 68-3.3 6.1-3.5 6.6-3 6.6 0.2 0 5.1-3 11-6.6 20.8-12.6 40.6-23.6 63.8-35.2 7.3-3.5 13.2-6.6 13.1-6.7-0.9-0.8-17.5-9.7-28.6-15.2-12.1-6.1-28.2-13.6-29.9-14-0.4 0-0.9 1.3-1.3 3.1zm-51.1 29.1c-16.2 13.9-37.3 33-37.3 34 0 0.2 2.6 1.7 5.9 3.4 8.4 4.3 15 9.2 23 16.9l6.9 6.7 3.1-4.9c1.6-2.9 4.5-7.9 6.5-11.4 8.3-14.8 16.8-34.4 21.9-50.1 2.5-8.3 6.7-23.4 6.4-23.8-0.4-0.4-24.8 19.2-36.4 29.2zm130.1 17.8c-21.4 32.2-50.3 65.3-82.9 95.3-12.7 11.7-12.1 11.1-11.3 11.1 0.3 0 5.2-1.8 10.8-3.9 51-18.7 94.7-32.7 151.2-48.3l10-2.9-1.5-1.6c-2.7-2.9-16.3-15.1-23.3-20.9-12.5-10.5-28.8-22.5-42.6-31.5l-6-4zm-61.1 19.8c-22.7 12.2-58.6 32.7-61 34.8-0.6 0.6-0.1 2 2.7 7.6 6.7 13.6 10.5 29.5 10.5 44.5 0 2.8 0.2 4.6 0.5 4.5 0.3-0.1 5.6-6.1 11.7-13.4 14.9-17.5 36.3-44.4 48.4-60.5 10.1-13.4 27-37.2 26.8-37.5-0.4-0.2-24.3 11.8-39.6 20zm-118.8 24.5c-2.8 8.3-6.6 17.8-10.4 25.8-4.3 9-8.4 16.1-16.5 28.5-1.3 1.9-0.9 1.6 10-7 10.3-8.3 28.1-21.7 39.8-30.1 4.2-3.1 7.4-5.7 7.2-5.9-6.3-5.2-13.4-10-21.3-14.3-3.2-1.8-6-3.2-6.4-3.2-0.2 0-1.5 2.7-2.4 6.2zm43.8 26.3c-0.3 0.2-2.6 3-5.2 6.1-24 29.3-55.9 58.7-92.8 85.5-4.7 3.4-8.5 6.3-8.5 6.4 0 0.1 4.9-2.2 11-5.3 6-3 15.3-7.4 20.6-9.9 18.8-8.6 46.7-20.2 77-31.9l16.9-6.6-0.3-2.4c-1.3-11.4-6.8-25.5-13.8-35.9-3.3-5-4.1-6.1-4.7-6zm-79.3 45.7c-6.8 4.8-7.7 5.7-12.4 11.7-7 9.1-13.2 16.5-21.3 25.3-12.8 13.9-14 15.2-13.1 14.7 0.4-0.3 3.7-2.4 7.4-4.7 29.3-18.5 52.8-37.5 76.6-61.8 9.7-9.8 23.7-25.7 23.2-26.2-0.5-0.5-42.3 27.9-60.4 41z"/>
	</g>
</svg>