<svg xmlns="http://www.w3.org/2000/svg" xmlns:xlink="http://www.w3.org/1999/xlink" viewBox="0 0 62 65" fill="#fff" fill-rule="evenodd" stroke="#000" stroke-linecap="round" stroke-linejoin="round"><use xlink:href="#A" x=".5" y=".5"/><symbol id="A" overflow="visible"><path d="M58.022 25.595H37.909a1.82 1.82 0 0 1-1.82-1.82V2.812c0-1.56-1.253-2.812-2.812-2.812h-7.185c-1.56 0-2.812 1.253-2.812 2.812v20.822c0 1.087-.874 1.962-1.962 1.962l-6.594.024c-1.087 0-1.985-.874-1.962-1.962l.047-20.845c0-1.56-1.253-2.812-2.812-2.812H2.812C1.252.001 0 1.254 0 2.813v58.682A2.5 2.5 0 0 0 2.505 64h55.516a2.5 2.5 0 0 0 2.505-2.505V28.099a2.49 2.49 0 0 0-2.505-2.505zm-9.43 22.027a3.27 3.27 0 0 1-3.262 3.261h-5.672a3.27 3.27 0 0 1-3.261-3.261V41.95a3.27 3.27 0 0 1 3.261-3.261h5.672a3.27 3.27 0 0 1 3.262 3.261z" stroke="none" fill="#f60" fill-rule="nonzero"/></symbol></svg>